<svg id="svg" version="1.1" xmlns="http://www.w3.org/2000/svg" xmlns:xlink="http://www.w3.org/1999/xlink" width="400" height="276.566757493188" viewBox="0, 0, 400,276.566757493188"><g id="svgg"><path id="path0" d="M110.286 15.896 L 93.460 19.206 93.460 30.720 C 93.460 40.799,93.512 42.234,93.871 42.234 C 94.097 42.234,96.691 41.866,99.636 41.417 C 102.581 40.967,105.032 40.599,105.084 40.599 C 105.135 40.599,105.177 57.337,105.177 77.793 L 105.177 114.986 109.381 114.986 L 113.585 114.986 113.735 113.556 C 113.817 112.769,114.380 100.599,114.985 86.512 C 115.591 72.425,116.184 60.102,116.303 59.128 L 116.520 57.357 116.698 58.583 C 116.846 59.599,119.640 113.010,119.624 114.510 C 119.619 114.941,119.980 114.986,123.433 114.986 L 127.248 114.986 127.248 63.760 C 127.248 35.586,127.217 12.546,127.180 12.560 C 127.142 12.574,119.540 14.075,110.286 15.896 M181.639 14.196 C 141.183 18.462,121.155 64.735,145.675 97.285 C 160.173 116.532,187.225 122.969,209.202 112.402 C 226.501 104.085,237.344 87.606,238.428 67.984 C 239.222 53.594,244.181 45.087,254.905 39.712 C 278.296 27.990,304.309 52.104,294.553 76.467 C 285.234 99.741,252.913 100.965,241.547 78.474 L 240.790 76.975 240.014 79.944 C 239.588 81.577,238.678 84.314,237.994 86.025 L 236.749 89.137 237.746 90.354 C 250.342 105.725,272.804 108.835,289.422 97.508 C 307.144 85.428,311.381 60.079,298.549 42.899 C 281.893 20.597,248.291 22.471,234.096 46.492 C 231.112 51.541,228.889 59.379,228.880 64.885 C 228.829 96.941,195.308 117.476,167.375 102.562 C 142.151 89.095,137.688 54.993,158.578 35.340 C 160.368 33.656,160.767 33.140,160.624 32.689 C 159.575 29.385,164.046 26.188,167.152 28.021 L 168.078 28.567 170.573 27.491 C 186.537 20.609,204.885 24.355,217.063 36.984 L 219.276 39.278 220.246 37.555 C 220.780 36.607,222.022 34.730,223.006 33.384 C 225.181 30.410,225.273 31.059,222.268 28.152 C 211.701 17.930,196.322 12.647,181.639 14.196 M263.488 14.057 C 262.963 14.119,261.115 14.370,259.381 14.614 L 256.227 15.058 256.846 17.806 C 257.187 19.318,257.441 20.574,257.411 20.598 C 257.381 20.622,256.192 20.972,254.768 21.376 C 253.345 21.780,250.839 22.675,249.199 23.364 C 246.746 24.396,246.176 24.549,245.982 24.230 C 245.852 24.017,245.254 22.946,244.653 21.851 L 243.561 19.859 242.012 20.732 C 226.086 29.704,216.833 45.377,215.804 65.122 C 214.848 83.458,201.757 95.932,184.767 94.698 C 156.542 92.647,147.744 55.383,172.035 40.768 C 186.257 32.211,206.483 38.374,212.865 53.210 C 213.558 54.820,213.442 54.976,214.557 50.931 C 215.070 49.070,215.976 46.384,216.572 44.962 L 217.654 42.376 216.797 41.291 C 206.643 28.424,187.456 23.656,172.151 30.197 C 169.661 31.261,169.632 31.285,169.329 32.475 C 168.560 35.490,165.892 36.935,163.142 35.827 C 162.432 35.541,157.254 40.866,155.087 44.112 C 137.830 69.960,155.970 104.207,186.921 104.212 C 207.567 104.215,224.274 88.566,225.476 68.098 C 225.864 61.497,226.799 55.812,228.106 52.108 C 233.262 37.497,246.000 26.962,261.605 24.403 L 262.584 24.242 261.990 21.590 L 261.396 18.937 262.202 18.717 C 263.109 18.468,273.161 18.572,273.420 18.833 C 273.512 18.925,273.329 20.193,273.013 21.651 C 272.697 23.108,272.479 24.329,272.527 24.364 C 272.576 24.399,273.940 24.699,275.558 25.032 C 279.664 25.875,283.327 27.179,287.177 29.169 C 288.989 30.106,290.517 30.823,290.572 30.763 C 290.627 30.703,291.178 29.642,291.797 28.406 C 292.416 27.170,293.063 26.158,293.235 26.158 C 294.036 26.158,302.180 32.990,302.180 33.661 C 302.180 33.843,301.197 34.752,299.996 35.681 L 297.813 37.370 299.010 38.780 C 301.889 42.172,305.135 47.766,306.548 51.771 C 307.388 54.154,307.202 54.095,310.098 52.883 C 311.925 52.118,312.720 51.900,312.847 52.129 C 313.198 52.766,314.423 58.757,314.583 60.627 C 314.674 61.676,314.808 62.829,314.883 63.189 L 315.018 63.844 312.047 63.664 L 309.076 63.483 308.910 67.232 C 308.721 71.539,308.001 75.448,306.660 79.457 C 306.144 80.998,305.722 82.304,305.722 82.359 C 305.722 82.414,306.856 82.812,308.243 83.243 C 309.629 83.675,310.864 84.111,310.987 84.213 C 311.301 84.474,308.838 89.275,306.810 92.357 L 305.116 94.931 303.035 92.684 L 300.954 90.437 298.969 92.766 C 296.043 96.200,291.775 99.641,286.761 102.611 C 286.299 102.885,286.366 103.087,287.682 105.402 C 288.462 106.774,289.101 107.967,289.101 108.052 C 289.101 108.498,281.259 111.517,278.573 112.104 L 277.717 112.292 277.399 109.892 C 277.224 108.573,277.054 107.309,277.021 107.084 C 276.950 106.593,276.362 106.591,272.480 107.076 C 269.219 107.482,262.930 107.304,259.741 106.714 C 258.655 106.513,257.763 106.422,257.760 106.512 C 257.740 107.148,256.973 112.056,256.879 112.149 C 256.645 112.384,251.150 110.589,248.354 109.364 L 245.485 108.108 245.949 107.392 C 246.204 106.998,246.938 105.889,247.580 104.928 L 248.747 103.179 246.941 102.124 C 243.752 100.260,241.626 98.599,238.394 95.446 L 235.234 92.364 233.926 94.331 L 232.618 96.298 235.077 98.654 C 236.429 99.949,238.654 101.845,240.021 102.866 C 242.959 105.060,242.882 104.697,240.983 107.393 C 239.121 110.035,238.955 109.766,243.960 112.225 C 249.053 114.728,254.177 116.402,259.461 117.290 C 260.629 117.486,260.545 117.670,261.049 113.835 L 261.362 111.458 262.902 111.580 C 266.797 111.890,268.429 111.923,270.708 111.740 C 272.057 111.631,273.202 111.572,273.253 111.608 C 273.335 111.667,274.096 116.688,274.109 117.258 C 274.141 118.645,287.804 114.123,293.493 110.843 L 295.329 109.785 293.824 107.179 C 292.997 105.746,292.423 104.482,292.550 104.371 C 292.676 104.259,293.699 103.497,294.823 102.677 C 295.947 101.857,297.924 100.184,299.217 98.960 L 301.567 96.735 303.677 98.944 C 304.838 100.159,305.865 101.039,305.959 100.900 C 306.054 100.762,306.820 99.798,307.661 98.757 C 311.409 94.127,317.723 82.378,316.862 81.636 C 316.805 81.586,315.550 81.147,314.075 80.660 C 311.665 79.864,311.406 79.715,311.524 79.192 C 312.656 74.184,313.072 71.973,313.228 70.130 L 313.416 67.916 316.423 68.059 L 319.431 68.201 319.267 64.005 C 319.043 58.249,317.536 50.783,315.857 47.099 L 315.395 46.087 312.843 47.158 C 311.439 47.747,310.213 48.224,310.118 48.218 C 310.023 48.212,309.455 47.147,308.856 45.852 C 308.256 44.557,306.945 42.236,305.943 40.696 L 304.120 37.894 306.427 36.093 L 308.733 34.292 307.938 33.290 C 304.066 28.415,292.348 18.925,291.436 19.926 C 291.385 19.982,290.825 21.069,290.191 22.343 C 289.556 23.617,288.995 24.706,288.944 24.762 C 288.892 24.818,287.711 24.370,286.319 23.765 C 283.750 22.649,278.803 20.981,278.062 20.981 C 277.534 20.981,277.549 20.641,278.210 17.672 C 278.515 16.304,278.730 15.153,278.687 15.113 C 278.072 14.535,266.341 13.719,263.488 14.057 M118.416 41.349 L 118.846 42.507 121.991 42.507 L 125.135 42.507 122.782 45.070 L 120.429 47.634 121.414 50.402 C 122.623 53.802,122.729 53.725,119.534 51.762 C 116.338 49.798,116.916 49.797,113.782 51.771 C 112.355 52.670,111.127 53.406,111.054 53.406 C 110.980 53.406,111.383 52.063,111.949 50.421 L 112.979 47.436 110.713 45.182 C 107.890 42.374,107.850 42.507,111.512 42.507 L 114.578 42.507 115.307 40.395 C 115.708 39.234,116.178 37.916,116.352 37.466 L 116.669 36.649 117.327 38.420 C 117.690 39.394,118.179 40.712,118.416 41.349 M327.520 104.087 L 327.520 112.807 329.012 112.807 L 330.504 112.807 330.579 108.525 L 330.654 104.244 331.580 103.621 C 334.165 101.880,334.877 102.922,334.877 108.447 L 334.877 112.807 336.512 112.807 L 338.147 112.807 338.147 108.869 C 338.147 104.459,337.829 102.473,336.963 101.470 C 335.853 100.183,333.227 100.122,331.575 101.344 C 331.155 101.654,330.746 101.907,330.665 101.907 C 330.584 101.907,330.518 100.436,330.518 98.638 L 330.518 95.368 329.019 95.368 L 327.520 95.368 327.520 104.087 M316.481 98.842 C 316.229 100.728,316.174 100.817,315.267 100.817 C 314.485 100.817,314.441 100.875,314.441 101.907 C 314.441 102.937,314.487 102.997,315.259 102.997 L 316.076 102.997 316.082 106.471 C 316.092 111.939,317.037 113.295,320.638 113.006 C 322.723 112.839,322.668 112.883,322.327 111.648 C 322.074 110.731,321.969 110.651,320.911 110.574 C 319.290 110.456,319.055 109.867,319.141 106.131 L 319.210 103.134 320.640 103.051 L 322.071 102.969 322.071 101.907 L 322.071 100.846 320.640 100.764 L 319.210 100.681 319.128 99.114 L 319.046 97.548 317.851 97.548 L 316.655 97.548 316.481 98.842 M119.074 127.742 L 119.074 137.501 126.226 137.838 C 130.160 138.023,133.900 138.243,134.537 138.328 L 135.695 138.481 135.695 128.641 L 135.695 118.801 134.946 118.795 C 134.533 118.792,131.069 118.611,127.248 118.392 C 123.426 118.174,120.024 117.993,119.687 117.990 L 119.074 117.984 119.074 127.742 M103.542 136.452 L 103.542 145.192 104.973 145.337 C 105.760 145.416,107.599 145.544,109.060 145.621 L 111.717 145.762 111.717 141.384 L 111.717 137.006 114.305 137.200 L 116.894 137.395 116.894 132.906 L 116.894 128.418 114.101 128.247 C 112.565 128.153,109.561 127.994,107.425 127.894 L 103.542 127.712 103.542 136.452 M315.604 128.337 C 309.998 129.518,309.148 135.027,314.214 137.356 C 317.443 138.842,318.394 139.444,318.654 140.170 C 319.560 142.694,315.167 143.296,311.104 141.204 C 310.991 141.146,310.899 141.833,310.899 142.730 C 310.899 144.704,311.264 144.920,315.001 145.155 C 323.463 145.686,325.617 139.127,318.176 135.484 C 314.975 133.916,314.366 133.268,314.931 132.030 C 315.506 130.766,318.528 130.490,320.913 131.483 L 321.798 131.852 321.798 130.265 C 321.798 128.724,321.775 128.674,320.989 128.517 C 319.349 128.189,316.725 128.101,315.604 128.337 M205.771 129.768 C 205.332 130.939,200.553 143.400,200.071 144.631 C 199.963 144.905,200.378 144.966,201.919 144.904 L 203.906 144.823 204.496 143.052 L 205.086 141.281 208.345 141.205 L 211.604 141.129 212.221 143.044 L 212.838 144.959 214.730 144.959 C 215.770 144.959,216.621 144.878,216.621 144.779 C 216.621 144.681,215.251 140.941,213.576 136.469 L 210.531 128.338 208.419 128.338 L 206.306 128.338 205.771 129.768 M219.074 136.649 L 219.074 144.959 220.859 144.959 L 222.645 144.959 222.562 138.935 C 222.483 133.172,222.500 132.939,222.950 133.554 C 223.209 133.907,225.084 136.618,227.117 139.578 L 230.814 144.959 232.713 144.959 L 234.613 144.959 234.541 136.717 L 234.469 128.474 232.755 128.393 L 231.042 128.311 231.120 134.183 C 231.164 137.413,231.138 140.052,231.063 140.048 C 230.988 140.044,229.154 137.407,226.987 134.189 L 223.048 128.338 221.061 128.338 L 219.074 128.338 219.074 136.649 M238.692 136.637 L 238.692 144.959 240.322 144.959 L 241.951 144.959 242.025 138.931 L 242.098 132.902 246.185 138.919 L 250.272 144.936 252.112 144.947 L 253.951 144.959 253.951 136.649 L 253.951 128.338 252.316 128.338 L 250.681 128.338 250.665 134.264 C 250.654 138.418,250.565 140.068,250.368 139.782 C 250.214 139.557,248.413 136.921,246.365 133.924 L 242.643 128.474 240.668 128.394 L 238.692 128.314 238.692 136.637 M258.038 136.785 L 258.038 145.232 259.946 145.232 L 261.853 145.232 261.853 136.785 L 261.853 128.338 259.946 128.338 L 258.038 128.338 258.038 136.785 M264.305 128.635 C 264.305 128.858,268.939 141.972,269.935 144.568 C 270.062 144.897,270.514 144.965,272.154 144.902 L 274.214 144.823 277.149 136.785 C 278.764 132.364,280.090 128.649,280.097 128.530 C 280.103 128.411,279.285 128.349,278.277 128.394 L 276.446 128.474 274.463 134.603 C 273.372 137.974,272.480 140.947,272.480 141.211 C 272.480 141.474,272.357 141.689,272.207 141.689 C 272.057 141.689,271.935 141.484,271.935 141.234 C 271.935 140.791,268.240 129.025,267.957 128.568 C 267.742 128.219,264.305 128.282,264.305 128.635 M282.561 136.642 L 282.561 144.959 287.602 144.959 L 292.643 144.959 292.643 143.597 L 292.643 142.234 289.373 142.234 L 286.104 142.234 286.104 140.191 L 286.104 138.147 288.965 138.147 L 291.826 138.147 291.826 136.649 L 291.826 135.150 288.965 135.150 L 286.104 135.150 286.104 133.251 L 286.104 131.353 289.169 131.276 L 292.234 131.199 292.234 129.837 L 292.234 128.474 287.398 128.400 L 282.561 128.325 282.561 136.642 M295.640 136.612 L 295.640 144.959 297.411 144.959 L 299.183 144.959 299.183 141.817 C 299.183 138.400,299.285 138.181,300.719 138.541 C 301.630 138.770,302.437 139.694,304.216 142.546 L 305.635 144.823 307.719 144.902 L 309.803 144.982 308.118 142.348 C 307.191 140.899,305.922 139.208,305.299 138.590 L 304.165 137.466 305.284 136.901 C 308.825 135.113,308.639 130.126,304.985 128.910 C 304.416 128.721,302.081 128.498,299.796 128.416 L 295.640 128.265 295.640 136.612 M330.140 128.560 C 329.876 128.988,323.978 144.439,323.978 144.704 C 323.978 144.844,324.812 144.959,325.832 144.959 L 327.686 144.959 328.300 143.052 L 328.914 141.144 332.146 141.144 L 335.378 141.144 335.974 142.935 C 336.658 144.991,336.693 145.015,338.900 144.905 L 340.549 144.823 337.484 136.649 L 334.419 128.474 332.355 128.395 C 331.220 128.351,330.223 128.425,330.140 128.560 M343.052 136.612 L 343.052 144.959 344.823 144.959 L 346.594 144.959 346.594 141.689 L 346.594 138.420 347.391 138.420 C 348.559 138.420,349.628 139.472,351.415 142.380 L 352.997 144.956 354.973 144.958 C 356.059 144.958,356.948 144.894,356.948 144.814 C 356.948 144.396,353.055 138.947,352.305 138.316 C 351.824 137.911,351.476 137.545,351.533 137.503 C 351.589 137.461,352.201 137.103,352.894 136.706 C 354.552 135.757,355.141 134.544,354.986 132.399 C 354.767 129.363,353.244 128.579,347.207 128.393 L 343.052 128.265 343.052 136.612 M356.948 128.518 C 356.948 128.617,358.174 131.061,359.673 133.950 L 362.398 139.203 362.398 142.081 L 362.398 144.959 364.169 144.959 L 365.940 144.959 365.940 141.997 L 365.940 139.036 368.665 133.910 C 371.896 127.832,371.810 128.338,369.610 128.338 L 367.830 128.338 366.578 130.995 C 365.889 132.456,365.112 134.194,364.850 134.858 L 364.374 136.066 363.838 134.858 C 363.543 134.194,362.768 132.456,362.116 130.995 L 360.930 128.338 358.939 128.338 C 357.844 128.338,356.948 128.419,356.948 128.518 M303.575 131.853 C 305.090 133.724,303.448 135.967,300.563 135.967 L 299.183 135.967 299.183 133.484 L 299.183 131.001 301.123 131.111 C 302.748 131.203,303.146 131.323,303.575 131.853 M350.241 131.370 C 352.723 132.501,351.308 135.692,348.225 135.915 L 346.594 136.033 346.594 133.548 L 346.594 131.063 348.080 131.063 C 348.897 131.063,349.870 131.201,350.241 131.370 M210.512 137.943 C 210.648 138.372,210.427 138.420,208.300 138.420 C 206.523 138.420,205.968 138.335,206.064 138.079 C 206.134 137.892,206.666 136.293,207.246 134.526 L 208.300 131.313 209.330 134.389 C 209.897 136.081,210.429 137.681,210.512 137.943 M332.425 131.850 C 332.425 132.133,332.895 133.727,333.469 135.392 L 334.513 138.420 332.111 138.420 L 329.709 138.420 330.795 135.377 C 331.392 133.703,331.880 132.109,331.880 131.834 C 331.880 131.560,332.003 131.335,332.153 131.335 C 332.302 131.335,332.425 131.567,332.425 131.850 M113.896 151.635 C 113.896 158.454,113.988 164.034,114.101 164.036 C 114.213 164.037,119.884 164.343,126.703 164.715 C 133.522 165.088,139.438 165.393,139.850 165.394 L 140.599 165.395 140.599 152.997 C 140.599 146.178,140.507 140.598,140.395 140.597 C 140.283 140.595,134.489 140.289,127.520 139.917 C 120.552 139.544,114.636 139.239,114.373 139.238 C 113.926 139.237,113.896 140.009,113.896 151.635 M101.635 155.229 C 101.635 159.604,101.727 163.238,101.839 163.306 C 101.952 163.373,104.220 163.518,106.880 163.628 L 111.717 163.826 111.717 155.883 C 111.717 149.770,111.638 147.913,111.376 147.827 C 111.189 147.765,108.920 147.615,106.335 147.495 L 101.634 147.275 101.635 155.229 M90.877 152.811 C 90.799 152.888,90.736 156.916,90.736 161.762 L 90.736 170.572 93.052 170.572 L 95.368 170.572 95.368 166.720 L 95.368 162.868 97.411 163.053 L 99.455 163.238 99.455 158.212 L 99.455 153.186 96.526 153.019 C 94.915 152.927,93.017 152.811,92.307 152.761 C 91.598 152.711,90.955 152.733,90.877 152.811 M97.548 216.619 L 97.548 268.120 104.223 268.120 L 110.899 268.120 110.899 230.358 L 110.899 192.595 111.921 192.745 C 112.483 192.828,114.905 192.968,117.302 193.057 C 119.700 193.146,121.999 193.283,122.411 193.361 L 123.161 193.504 123.161 190.474 L 123.161 187.444 126.226 187.617 C 127.912 187.712,130.916 187.870,132.902 187.968 L 136.512 188.147 136.512 184.904 L 136.512 181.660 144.005 181.853 L 151.499 182.046 151.499 178.489 L 151.499 174.932 152.793 174.938 C 153.505 174.941,157.214 175.122,161.035 175.341 C 164.857 175.559,168.689 175.740,169.550 175.743 L 171.117 175.749 171.117 172.471 C 171.117 170.087,171.024 169.164,170.777 169.087 C 170.589 169.028,154.680 168.174,135.422 167.188 C 116.165 166.202,99.765 165.333,98.978 165.256 L 97.548 165.118 97.548 216.619 M292.643 220.027 L 292.643 268.120 332.970 268.120 L 373.297 268.120 373.297 222.071 L 373.297 176.022 372.536 176.022 C 372.117 176.022,354.307 175.102,332.958 173.979 C 311.609 172.855,293.804 171.936,293.392 171.935 L 292.643 171.935 292.643 220.027 M86.104 220.181 L 86.104 268.120 90.736 268.120 L 95.368 268.120 95.368 220.464 L 95.368 172.808 91.621 172.637 C 89.561 172.544,87.476 172.416,86.989 172.354 L 86.104 172.241 86.104 220.181 M268.937 223.123 L 268.937 268.120 279.019 268.120 L 289.101 268.120 289.101 223.725 L 289.101 179.331 287.670 179.184 C 286.884 179.103,283.481 178.908,280.109 178.750 C 276.737 178.593,272.844 178.388,271.458 178.295 L 268.937 178.127 268.937 223.123 M76.022 223.433 L 76.022 268.120 79.973 268.120 L 83.924 268.120 83.924 223.609 L 83.924 179.099 81.839 178.923 C 80.692 178.826,78.914 178.747,77.888 178.747 L 76.022 178.747 76.022 223.433 M154.223 223.433 L 154.223 268.120 160.899 268.120 L 167.575 268.120 167.575 234.621 C 167.575 216.197,167.667 201.076,167.779 201.019 C 167.892 200.962,170.804 201.069,174.251 201.256 C 177.698 201.442,181.407 201.604,182.493 201.615 L 184.469 201.635 184.469 198.888 L 184.469 196.142 186.172 196.298 C 187.108 196.383,190.634 196.579,194.005 196.733 C 197.377 196.886,200.719 197.075,201.431 197.153 L 202.725 197.294 202.725 194.313 L 202.725 191.332 204.292 191.450 C 206.817 191.639,221.168 192.371,222.351 192.371 L 223.433 192.371 223.433 187.330 L 223.433 182.289 222.684 182.288 C 222.272 182.288,206.798 181.491,188.298 180.517 C 169.798 179.543,154.563 178.747,154.443 178.747 C 154.322 178.747,154.223 198.856,154.223 223.433 M67.302 226.118 L 67.302 268.120 70.572 268.120 L 73.842 268.120 73.842 226.294 L 73.842 184.469 72.657 184.469 C 72.005 184.469,70.534 184.389,69.387 184.292 L 67.302 184.116 67.302 226.118 M246.594 226.123 L 246.594 268.120 255.995 268.120 L 265.395 268.120 265.395 226.708 L 265.395 185.296 264.782 185.172 C 264.445 185.104,261.165 184.914,257.493 184.751 C 253.822 184.587,249.867 184.379,248.706 184.289 L 246.594 184.126 246.594 226.123 M139.510 226.395 L 139.510 268.120 145.504 268.120 L 151.499 268.120 151.499 226.741 L 151.499 185.362 147.343 185.181 C 145.058 185.081,142.360 184.926,141.349 184.835 L 139.510 184.671 139.510 226.395 M225.886 229.019 L 225.886 268.120 234.469 268.120 L 243.052 268.120 243.052 229.428 C 243.052 208.147,243.021 190.731,242.984 190.725 C 242.382 190.635,228.819 189.929,227.589 189.924 L 225.886 189.918 225.886 229.019 M125.886 229.127 L 125.886 268.120 131.199 268.120 L 136.512 268.120 136.512 229.460 L 136.512 190.801 133.311 190.628 C 131.550 190.532,129.159 190.382,127.997 190.294 L 125.886 190.134 125.886 229.127 M113.896 231.587 L 113.896 268.120 118.529 268.120 L 123.161 268.120 123.161 231.897 L 123.161 195.674 122.003 195.531 C 121.366 195.453,119.281 195.313,117.371 195.221 L 113.896 195.054 113.896 231.587 M206.267 231.608 L 206.267 268.120 214.305 268.120 L 222.343 268.120 222.343 232.016 C 222.343 203.318,222.273 195.912,222.003 195.907 C 221.815 195.904,218.535 195.722,214.714 195.504 C 210.892 195.286,207.428 195.105,207.016 195.101 L 206.267 195.095 206.267 231.608 M188.011 234.060 L 188.011 268.120 195.368 268.120 L 202.725 268.120 202.725 234.474 L 202.725 200.828 202.112 200.705 C 201.556 200.593,190.088 199.992,188.624 199.998 L 188.011 200.000 188.011 234.060 M171.117 236.235 L 171.117 268.120 177.793 268.120 L 184.469 268.120 184.469 236.684 L 184.469 205.247 182.357 205.081 C 181.196 204.989,178.467 204.844,176.294 204.758 C 174.121 204.672,172.067 204.545,171.730 204.475 L 171.117 204.349 171.117 236.235 M58.583 242.779 L 58.583 268.120 61.853 268.120 L 65.123 268.120 65.123 242.956 L 65.123 217.791 63.038 217.615 C 61.891 217.518,60.420 217.439,59.768 217.439 L 58.583 217.439 58.583 242.779 M50.136 252.520 L 50.136 268.120 53.406 268.120 L 56.676 268.120 56.676 252.737 L 56.676 237.354 55.790 237.213 C 55.303 237.135,53.832 237.037,52.520 236.996 L 50.136 236.921 50.136 252.520 M42.507 253.542 L 42.507 268.120 45.368 268.120 L 48.229 268.120 48.229 253.716 L 48.229 239.311 46.965 239.138 C 46.269 239.043,44.982 238.965,44.104 238.965 L 42.507 238.965 42.507 253.542 M35.422 254.496 L 35.422 268.120 38.011 268.120 L 40.599 268.120 40.599 254.661 C 40.599 242.640,40.553 241.185,40.168 241.037 C 39.931 240.946,38.767 240.872,37.580 240.872 L 35.422 240.872 35.422 254.496 M28.883 255.313 L 28.883 268.120 31.199 268.120 L 33.515 268.120 33.515 255.313 L 33.515 242.507 31.199 242.507 L 28.883 242.507 28.883 255.313 M23.161 255.995 L 23.161 268.120 25.068 268.120 L 26.975 268.120 26.975 256.169 L 26.975 244.218 25.545 244.046 C 24.758 243.951,23.900 243.873,23.638 243.872 C 23.191 243.869,23.161 244.627,23.161 255.995 " stroke="none" fill="#9c252d" fill-rule="evenodd"></path><path id="path1" d="M0.000 138.283 L 0.000 276.567 200.000 276.567 L 400.000 276.567 400.000 138.283 L 400.000 0.000 200.000 0.000 L 0.000 0.000 0.000 138.283 M127.520 63.760 L 127.520 114.986 123.586 114.986 L 119.652 114.986 119.506 113.828 C 119.426 113.191,118.739 100.409,117.980 85.422 C 116.698 60.122,116.426 55.643,116.370 58.868 C 116.358 59.549,115.797 72.173,115.123 86.921 C 114.448 101.669,113.896 114.018,113.896 114.361 L 113.896 114.986 109.537 114.986 L 105.177 114.986 105.177 77.929 C 105.177 41.499,105.168 40.872,104.651 40.872 C 104.362 40.872,101.778 41.240,98.910 41.689 C 96.042 42.139,93.581 42.507,93.442 42.507 C 93.289 42.507,93.188 37.840,93.188 30.803 L 93.188 19.098 94.210 18.907 C 94.772 18.802,102.221 17.337,110.763 15.651 C 119.305 13.966,126.570 12.575,126.907 12.560 L 127.520 12.534 127.520 63.760 M193.970 14.308 C 205.049 15.883,215.788 21.232,223.390 28.962 L 225.118 30.719 223.424 33.003 C 222.492 34.259,221.174 36.241,220.495 37.408 L 219.260 39.530 217.530 37.634 C 205.705 24.678,186.810 20.702,170.377 27.712 L 168.137 28.667 166.953 28.094 C 163.875 26.604,160.957 28.348,160.846 31.744 L 160.792 33.379 157.563 36.649 C 137.716 56.747,143.035 89.931,168.168 102.809 C 188.990 113.477,214.701 104.597,224.654 83.299 C 227.099 78.066,228.029 73.898,228.741 64.986 C 229.662 53.439,232.656 46.297,239.632 38.999 C 263.653 13.871,306.079 30.987,306.079 65.804 C 306.079 96.796,271.854 115.114,246.022 97.949 C 240.982 94.599,236.239 89.609,236.888 88.338 C 237.655 86.836,239.313 82.083,240.035 79.313 L 240.781 76.455 241.488 78.000 C 249.647 95.821,273.631 100.166,287.726 86.376 C 300.158 74.213,299.088 53.572,285.484 43.102 C 266.042 28.139,238.777 41.765,238.695 66.485 C 238.624 88.098,223.723 108.358,202.929 115.114 C 167.004 126.787,130.994 97.471,135.140 59.927 C 138.324 31.095,165.239 10.224,193.970 14.308 M275.886 14.420 C 276.635 14.575,277.630 14.768,278.098 14.849 L 278.947 14.998 278.331 17.850 L 277.715 20.703 278.844 21.000 C 281.124 21.598,284.843 22.919,286.814 23.829 L 288.838 24.765 290.091 22.260 C 290.780 20.882,291.376 19.718,291.416 19.673 C 291.529 19.547,295.545 22.022,297.820 23.621 C 301.208 26.001,308.409 32.986,308.660 34.135 C 308.702 34.328,307.880 35.136,306.834 35.931 C 304.092 38.016,304.154 37.756,305.811 40.232 C 306.608 41.423,307.918 43.691,308.722 45.271 L 310.182 48.144 312.633 47.097 C 315.825 45.732,315.553 45.598,316.699 49.114 C 318.564 54.842,319.226 58.490,319.524 64.672 L 319.705 68.444 316.686 68.248 L 313.667 68.053 313.498 69.381 C 313.077 72.681,312.461 76.160,312.008 77.795 C 311.736 78.774,311.590 79.618,311.684 79.669 C 311.777 79.721,313.057 80.160,314.528 80.646 C 316.728 81.372,317.170 81.608,317.020 81.977 C 316.920 82.223,316.601 83.099,316.312 83.924 C 314.490 89.120,307.136 101.090,305.766 101.090 C 305.659 101.090,304.667 100.178,303.560 99.064 L 301.547 97.038 299.479 98.954 C 298.342 100.008,296.339 101.676,295.027 102.660 C 292.215 104.771,292.320 104.302,294.005 107.221 C 295.684 110.128,295.776 109.714,293.118 111.206 C 288.258 113.934,283.053 115.869,277.410 117.044 C 273.648 117.828,273.993 118.044,273.591 114.655 L 273.259 111.853 267.325 111.853 L 261.392 111.853 261.077 114.536 C 260.904 116.012,260.702 117.317,260.629 117.436 C 259.885 118.639,241.267 112.063,239.547 109.990 C 239.350 109.754,239.742 108.976,240.918 107.265 C 241.823 105.948,242.520 104.838,242.467 104.797 C 242.414 104.756,241.512 104.120,240.463 103.383 C 239.414 102.646,237.216 100.746,235.578 99.159 L 232.599 96.274 233.931 94.172 L 235.264 92.069 236.983 93.972 C 239.721 97.002,243.375 99.854,248.408 102.890 C 248.869 103.168,248.787 103.372,247.342 105.544 C 246.481 106.838,245.777 107.948,245.777 108.010 C 245.777 108.406,255.518 111.989,256.595 111.989 C 256.772 111.989,257.033 110.821,257.233 109.128 C 257.420 107.554,257.679 106.267,257.808 106.267 C 257.938 106.267,259.238 106.470,260.698 106.719 C 264.259 107.325,270.941 107.321,274.358 106.711 C 277.413 106.165,277.038 105.859,277.431 109.216 C 277.808 112.425,277.583 112.291,280.912 111.285 C 285.805 109.807,289.175 108.192,288.745 107.531 C 288.537 107.210,287.855 106.013,287.229 104.871 L 286.092 102.794 288.073 101.623 C 291.625 99.524,294.082 97.549,297.588 93.976 L 301.034 90.464 303.034 92.526 L 305.034 94.589 305.652 93.820 C 307.056 92.073,310.899 85.241,310.899 84.493 C 310.899 84.349,309.670 83.829,308.168 83.337 C 306.004 82.627,305.474 82.355,305.616 82.025 C 307.220 78.277,308.551 71.945,308.857 66.604 L 309.046 63.318 309.768 63.393 C 310.165 63.434,311.441 63.515,312.602 63.573 L 314.714 63.678 314.712 62.970 C 314.709 61.718,313.924 56.885,313.320 54.405 C 312.652 51.662,312.978 51.765,309.596 53.232 L 307.339 54.211 307.052 53.468 C 306.894 53.059,306.486 51.989,306.145 51.090 C 304.715 47.319,301.936 42.554,299.265 39.295 C 297.486 37.125,297.415 37.491,299.989 35.555 C 301.182 34.658,302.163 33.844,302.169 33.746 C 302.200 33.236,293.843 26.190,293.176 26.164 C 293.094 26.161,292.487 27.262,291.826 28.610 C 291.165 29.959,290.601 31.063,290.573 31.063 C 290.545 31.063,289.007 30.275,287.155 29.313 C 283.338 27.329,279.318 25.906,275.198 25.080 C 271.816 24.402,272.163 24.893,272.829 21.731 C 273.137 20.270,273.296 18.982,273.184 18.870 C 272.941 18.627,261.974 18.590,261.733 18.831 C 261.641 18.922,261.828 20.186,262.148 21.639 C 262.468 23.093,262.685 24.314,262.632 24.352 C 262.578 24.390,261.377 24.636,259.963 24.899 C 246.875 27.333,235.599 36.080,229.861 48.252 C 227.359 53.560,226.268 58.547,225.628 67.613 C 222.972 105.187,175.757 118.193,154.711 87.147 C 144.404 71.942,146.647 51.180,160.009 38.096 L 162.427 35.729 164.265 35.883 C 167.092 36.120,168.804 34.896,169.139 32.398 C 169.278 31.359,169.371 31.268,171.051 30.506 C 185.837 23.801,202.647 26.940,214.373 38.596 C 218.244 42.443,218.034 41.753,216.496 45.599 C 215.828 47.270,214.963 49.864,214.574 51.362 C 214.184 52.861,213.805 54.268,213.730 54.490 C 213.649 54.728,213.056 53.874,212.273 52.391 C 199.986 29.131,165.336 33.109,158.835 58.527 C 152.103 84.850,182.205 104.995,204.098 88.816 C 211.459 83.376,215.148 75.774,215.664 64.986 C 216.571 45.977,225.492 30.490,240.847 21.267 C 243.745 19.527,243.551 19.486,244.949 22.139 C 245.601 23.375,246.158 24.419,246.186 24.459 C 246.215 24.498,247.167 24.107,248.303 23.589 C 250.596 22.544,254.675 21.125,256.219 20.836 C 257.396 20.615,257.367 20.816,256.665 17.663 C 256.012 14.732,255.888 14.896,259.086 14.476 C 260.383 14.306,261.751 14.115,262.125 14.052 C 263.383 13.839,274.508 14.137,275.886 14.420 M115.572 40.054 L 114.678 42.779 111.637 42.779 L 108.595 42.779 110.882 45.078 L 113.168 47.376 112.178 50.173 C 110.973 53.578,110.809 53.460,113.989 51.471 L 116.633 49.816 119.284 51.451 C 122.397 53.371,122.356 53.402,121.152 50.077 L 120.214 47.486 122.512 45.201 L 124.811 42.916 121.772 42.779 L 118.733 42.643 117.754 39.986 C 116.558 36.739,116.659 36.736,115.572 40.054 M330.719 98.657 C 330.577 101.738,330.597 101.920,331.029 101.529 C 332.372 100.314,334.902 99.935,336.272 100.743 C 337.848 101.674,338.147 102.874,338.147 108.260 L 338.147 113.079 336.512 113.079 L 334.877 113.079 334.873 108.924 C 334.869 104.076,334.683 103.448,333.222 103.325 C 331.107 103.146,330.815 103.773,330.729 108.666 L 330.654 112.943 329.019 112.943 L 327.384 112.943 327.312 104.155 L 327.240 95.368 329.055 95.368 L 330.870 95.368 330.719 98.657 M319.346 98.910 L 319.346 100.545 320.845 100.545 L 322.343 100.545 322.343 101.907 L 322.343 103.270 320.845 103.270 L 319.346 103.270 319.346 106.343 C 319.346 110.039,319.640 110.714,321.193 110.577 C 322.095 110.497,322.184 110.558,322.408 111.409 C 322.760 112.753,322.541 113.015,320.894 113.221 C 317.262 113.675,316.086 112.165,315.867 106.768 L 315.726 103.270 314.932 103.270 C 313.651 103.270,313.868 100.724,315.160 100.598 C 316.063 100.510,316.349 99.901,316.349 98.059 C 316.349 97.291,316.378 97.275,317.847 97.275 L 319.346 97.275 319.346 98.910 M127.657 118.260 C 131.553 118.424,135.017 118.616,135.354 118.685 L 135.967 118.811 135.967 128.616 L 135.967 138.420 134.537 138.414 C 133.750 138.411,130.041 138.229,126.294 138.010 C 122.548 137.790,119.329 137.609,119.142 137.607 C 118.782 137.602,118.613 118.263,118.969 117.906 C 119.062 117.813,119.461 117.788,119.855 117.850 C 120.249 117.911,123.760 118.096,127.657 118.260 M111.444 127.934 C 113.617 128.018,115.797 128.150,116.287 128.226 L 117.179 128.365 117.105 132.903 L 117.030 137.441 114.373 137.363 L 111.717 137.285 111.717 141.531 L 111.717 145.777 110.286 145.775 C 109.499 145.774,107.660 145.695,106.199 145.598 L 103.542 145.422 103.542 136.439 L 103.542 127.456 105.518 127.619 C 106.604 127.708,109.271 127.850,111.444 127.934 M321.460 128.575 C 321.978 128.853,322.071 129.128,322.071 130.391 C 322.071 132.044,322.067 132.047,320.436 131.471 C 315.146 129.605,312.818 132.835,317.800 135.130 C 326.156 138.978,323.165 146.688,313.876 145.247 C 310.990 144.799,310.899 144.719,310.899 142.631 L 310.899 140.867 312.309 141.604 C 315.200 143.115,318.670 142.481,318.474 140.477 C 318.401 139.735,318.158 139.529,316.213 138.556 C 311.069 135.984,309.714 133.873,311.272 130.859 C 312.485 128.515,318.731 127.115,321.460 128.575 M213.792 136.649 C 215.492 141.144,216.886 144.920,216.889 145.039 C 216.891 145.157,215.954 145.219,214.804 145.175 L 212.715 145.095 212.125 143.324 L 211.535 141.553 208.379 141.477 L 205.223 141.400 204.646 142.975 C 204.328 143.842,204.015 144.704,203.950 144.891 C 203.834 145.227,200.264 145.405,199.950 145.091 C 199.873 145.014,201.232 141.211,202.970 136.641 L 206.131 128.332 208.415 128.403 L 210.699 128.474 213.792 136.649 M227.093 134.098 L 230.926 139.723 231.000 134.030 L 231.074 128.338 232.839 128.338 L 234.605 128.338 234.605 136.785 L 234.605 145.232 232.711 145.232 L 230.817 145.232 226.785 139.344 L 222.752 133.456 222.679 139.344 L 222.605 145.232 220.839 145.232 L 219.074 145.232 219.074 136.773 L 219.074 128.315 221.166 128.395 L 223.259 128.474 227.093 134.098 M246.475 133.856 C 248.527 136.890,250.283 139.459,250.376 139.564 C 250.469 139.670,250.545 137.217,250.545 134.115 L 250.545 128.474 252.388 128.393 L 254.231 128.313 254.159 136.704 L 254.087 145.095 252.192 145.095 L 250.297 145.095 246.334 139.316 L 242.371 133.537 242.234 139.316 L 242.098 145.095 240.327 145.095 L 238.556 145.095 238.484 137.060 C 238.397 127.477,238.177 128.338,240.709 128.338 L 242.743 128.338 246.475 133.856 M261.853 136.785 L 261.853 145.232 259.946 145.232 L 258.038 145.232 258.038 136.785 L 258.038 128.338 259.946 128.338 L 261.853 128.338 261.853 136.785 M270.016 134.296 C 271.071 137.573,271.935 140.394,271.935 140.563 C 271.935 141.707,272.585 140.099,274.236 134.871 C 276.533 127.600,276.086 128.296,278.397 128.393 L 280.315 128.474 277.283 136.785 L 274.251 145.095 272.105 145.095 L 269.960 145.095 267.172 137.330 C 265.638 133.059,264.296 129.288,264.190 128.951 C 264.001 128.352,264.044 128.338,266.046 128.338 L 268.097 128.338 270.016 134.296 M292.371 129.837 L 292.371 131.335 289.237 131.335 L 286.104 131.335 286.104 133.233 L 286.104 135.131 289.033 135.209 L 291.962 135.286 291.962 136.649 L 291.962 138.011 289.033 138.088 L 286.104 138.166 286.104 140.055 L 286.104 141.945 289.441 142.022 L 292.779 142.098 292.779 143.597 L 292.779 145.095 287.602 145.095 L 282.425 145.095 282.353 136.717 L 282.281 128.338 287.326 128.338 L 292.371 128.338 292.371 129.837 M305.582 129.019 C 308.781 130.624,308.710 135.381,305.464 136.988 L 304.383 137.522 305.219 138.312 C 306.129 139.170,309.809 144.493,309.809 144.950 C 309.809 145.118,308.998 145.232,307.789 145.232 L 305.768 145.232 303.939 142.361 C 301.968 139.271,301.382 138.692,300.220 138.692 L 299.472 138.692 299.396 141.894 L 299.319 145.095 297.480 145.176 L 295.640 145.257 295.640 136.774 L 295.640 128.291 300.068 128.383 C 303.833 128.460,304.658 128.556,305.582 129.019 M337.554 136.469 C 341.191 146.180,341.080 145.275,338.624 145.175 L 336.649 145.095 336.003 143.256 L 335.358 141.417 332.174 141.417 L 328.990 141.417 328.376 143.324 L 327.761 145.232 325.734 145.232 C 324.618 145.232,323.706 145.124,323.706 144.993 C 323.706 144.788,327.801 133.968,329.468 129.768 L 330.036 128.338 332.273 128.338 L 334.509 128.338 337.554 136.469 M353.106 129.155 C 356.469 131.066,355.780 136.040,351.962 137.411 C 351.765 137.482,351.938 137.771,352.399 138.142 C 353.099 138.703,356.765 143.893,357.125 144.831 C 357.252 145.162,356.916 145.232,355.198 145.232 L 353.117 145.232 351.340 142.492 C 349.109 139.055,348.747 138.692,347.548 138.692 L 346.594 138.692 346.594 141.974 L 346.594 145.257 344.755 145.176 L 342.916 145.095 342.843 136.694 L 342.771 128.292 347.339 128.383 C 351.623 128.468,351.982 128.517,353.106 129.155 M361.895 130.177 C 362.355 131.189,363.092 132.808,363.532 133.775 L 364.332 135.534 365.996 131.936 L 367.660 128.338 369.661 128.338 C 370.762 128.338,371.662 128.387,371.662 128.448 C 371.662 128.508,370.375 130.991,368.802 133.965 L 365.942 139.373 365.941 142.315 L 365.940 145.257 364.101 145.176 L 362.262 145.095 362.122 141.826 L 361.982 138.556 359.306 133.447 L 356.631 128.338 358.844 128.338 L 361.058 128.338 361.895 130.177 M299.455 133.341 L 299.455 135.695 300.917 135.695 C 304.921 135.695,305.099 131.499,301.110 131.137 L 299.455 130.987 299.455 133.341 M346.594 133.379 L 346.594 135.695 348.189 135.695 C 350.131 135.695,351.226 134.907,351.226 133.510 C 351.226 131.807,350.178 131.063,347.780 131.063 L 346.594 131.063 346.594 133.379 M207.195 135.082 L 206.080 138.420 208.217 138.420 C 209.393 138.420,210.353 138.328,210.352 138.215 C 210.350 138.103,209.890 136.601,209.330 134.877 L 208.311 131.744 207.195 135.082 M331.082 134.948 C 330.581 136.483,330.113 137.892,330.042 138.079 C 329.947 138.334,330.470 138.420,332.123 138.420 C 333.338 138.420,334.332 138.368,334.332 138.304 C 334.332 138.047,332.330 132.547,332.168 132.360 C 332.073 132.249,331.584 133.413,331.082 134.948 M129.564 139.878 L 140.736 140.463 140.736 152.997 L 140.736 165.531 138.011 165.431 C 136.512 165.376,130.443 165.070,124.523 164.750 L 113.760 164.169 113.689 151.584 L 113.619 139.000 116.005 139.146 C 117.318 139.227,123.420 139.557,129.564 139.878 M110.014 147.576 L 111.717 147.727 111.717 155.909 L 111.717 164.091 109.332 163.931 C 108.021 163.843,105.691 163.694,104.155 163.600 L 101.362 163.429 101.362 155.257 L 101.362 147.084 104.837 147.254 C 106.747 147.347,109.077 147.492,110.014 147.576 M99.387 153.009 C 99.643 153.090,99.728 154.365,99.728 158.166 L 99.728 163.215 97.684 163.215 L 95.640 163.215 95.640 167.030 L 95.640 170.845 94.452 170.845 C 93.799 170.845,92.695 170.767,92.000 170.671 L 90.736 170.498 90.736 161.523 L 90.736 152.548 94.891 152.725 C 97.176 152.823,99.200 152.950,99.387 153.009 M133.106 166.888 C 151.839 167.859,168.055 168.728,169.142 168.819 L 171.117 168.984 171.117 172.535 L 171.117 176.086 168.869 175.920 C 167.633 175.828,163.924 175.629,160.627 175.478 C 157.330 175.327,153.927 175.136,153.065 175.054 L 151.499 174.905 151.499 178.480 L 151.499 182.056 144.141 181.968 L 136.784 181.880 136.785 185.122 L 136.785 188.364 133.992 188.191 C 132.456 188.097,129.390 187.937,127.180 187.837 L 123.161 187.656 123.161 190.595 L 123.161 193.534 119.687 193.354 C 117.776 193.256,115.078 193.100,113.692 193.008 L 111.172 192.841 111.172 230.617 L 111.172 268.392 104.360 268.392 L 97.548 268.392 97.548 216.757 L 97.548 165.123 98.297 165.122 C 98.709 165.122,114.373 165.917,133.106 166.888 M333.515 173.850 C 353.971 174.897,371.352 175.823,372.139 175.908 L 373.569 176.061 373.569 222.227 L 373.569 268.392 332.970 268.392 L 292.371 268.392 292.371 220.004 L 292.371 171.616 294.346 171.780 C 295.433 171.871,313.059 172.802,333.515 173.850 M94.755 172.639 L 95.640 172.777 95.640 220.585 L 95.640 268.392 90.872 268.392 L 86.104 268.392 86.104 220.274 L 86.104 172.156 89.986 172.329 C 92.122 172.424,94.268 172.563,94.755 172.639 M279.776 178.617 C 284.014 178.838,287.846 179.019,288.291 179.019 L 289.101 179.019 289.101 223.706 L 289.101 268.392 279.019 268.392 L 268.937 268.392 268.937 223.187 L 268.937 177.981 270.504 178.098 C 271.366 178.163,275.538 178.396,279.776 178.617 M83.856 178.895 C 84.126 178.980,84.196 188.181,84.196 223.704 L 84.196 268.407 80.041 268.331 L 75.886 268.256 75.817 223.346 L 75.748 178.436 79.631 178.612 C 81.767 178.709,83.668 178.836,83.856 178.895 M188.828 180.390 C 206.587 181.292,221.638 182.096,222.275 182.176 L 223.433 182.322 223.433 187.497 L 223.433 192.671 221.185 192.510 C 219.048 192.357,203.843 191.553,203.084 191.553 C 202.809 191.553,202.725 192.226,202.725 194.414 L 202.725 197.275 201.703 197.269 C 201.141 197.266,197.554 197.085,193.733 196.866 C 189.911 196.648,186.325 196.467,185.763 196.464 L 184.741 196.458 184.741 199.183 C 184.741 201.829,184.723 201.907,184.128 201.900 C 183.791 201.896,180.266 201.715,176.294 201.499 C 172.323 201.282,168.798 201.101,168.460 201.097 L 167.847 201.090 167.847 234.741 L 167.847 268.392 161.035 268.392 L 154.223 268.392 154.223 223.467 L 154.223 178.541 155.381 178.646 C 156.018 178.703,171.069 179.488,188.828 180.390 M72.957 184.355 L 74.116 184.502 74.047 226.379 L 73.978 268.256 70.504 268.332 L 67.030 268.409 67.030 226.348 C 67.030 203.214,67.082 184.235,67.146 184.171 C 67.291 184.026,71.390 184.156,72.957 184.355 M257.221 184.605 C 261.042 184.823,264.506 185.004,264.918 185.008 L 265.668 185.014 265.668 226.703 L 265.668 268.392 256.131 268.392 L 246.594 268.392 246.594 226.294 L 246.594 184.196 248.433 184.202 C 249.445 184.205,253.399 184.387,257.221 184.605 M150.204 185.196 L 151.499 185.356 151.499 226.874 L 151.499 268.392 145.368 268.392 L 139.237 268.392 139.237 226.528 L 139.237 184.663 144.074 184.850 C 146.734 184.952,149.493 185.108,150.204 185.196 M233.787 190.054 C 237.609 190.273,241.318 190.454,242.030 190.457 L 243.324 190.463 243.324 229.428 L 243.324 268.392 234.469 268.392 L 225.613 268.392 225.613 229.019 L 225.613 189.646 226.226 189.652 C 226.563 189.655,229.966 189.836,233.787 190.054 M136.035 190.633 L 136.785 190.779 136.785 229.586 L 136.785 268.392 131.335 268.392 L 125.886 268.392 125.886 229.257 L 125.886 190.121 130.586 190.304 C 133.171 190.405,135.623 190.553,136.035 190.633 M119.687 195.254 L 123.161 195.423 123.161 231.908 L 123.161 268.392 118.392 268.392 L 113.624 268.392 113.624 231.598 L 113.624 194.804 114.918 194.944 C 115.630 195.021,117.776 195.160,119.687 195.254 M215.054 195.396 L 222.343 195.729 222.343 232.061 L 222.343 268.392 214.169 268.392 L 205.995 268.392 205.995 231.789 C 205.995 211.658,206.081 195.100,206.186 194.995 C 206.291 194.890,206.689 194.862,207.071 194.934 C 207.453 195.005,211.046 195.213,215.054 195.396 M197.101 200.280 C 199.778 200.426,202.138 200.545,202.346 200.545 C 202.667 200.545,202.725 205.701,202.725 234.473 L 202.725 268.401 195.300 268.329 L 187.875 268.256 187.805 234.332 C 187.766 215.674,187.794 200.252,187.867 200.061 C 187.965 199.802,188.538 199.752,190.117 199.865 C 191.281 199.948,194.424 200.135,197.101 200.280 M179.019 204.725 L 184.605 205.041 184.605 236.649 L 184.605 268.256 177.861 268.329 L 171.117 268.402 171.117 236.381 L 171.117 204.360 172.275 204.384 C 172.912 204.397,175.947 204.551,179.019 204.725 M65.054 217.587 C 65.324 217.672,65.395 223.002,65.395 243.043 L 65.395 268.392 61.989 268.392 L 58.583 268.392 58.583 242.812 L 58.583 217.232 61.649 217.356 C 63.334 217.425,64.867 217.529,65.054 217.587 M54.454 236.962 L 56.948 237.139 56.948 252.766 L 56.948 268.392 53.542 268.392 L 50.136 268.392 50.136 252.589 L 50.136 236.785 51.048 236.785 C 51.550 236.785,53.082 236.864,54.454 236.962 M46.632 238.965 L 48.501 238.965 48.501 253.678 L 48.501 268.392 45.368 268.392 L 42.234 268.392 42.234 253.505 L 42.234 238.618 43.499 238.791 C 44.194 238.887,45.604 238.965,46.632 238.965 M39.305 240.870 L 40.599 240.872 40.599 254.632 L 40.599 268.392 37.875 268.392 L 35.150 268.392 35.150 254.458 L 35.150 240.524 36.580 240.695 C 37.367 240.790,38.593 240.868,39.305 240.870 M32.221 242.504 L 33.515 242.507 33.515 255.450 L 33.515 268.392 31.199 268.392 L 28.883 268.392 28.883 255.278 L 28.883 242.163 29.905 242.332 C 30.467 242.425,31.509 242.502,32.221 242.504 M27.248 256.131 L 27.248 268.392 25.204 268.392 L 23.161 268.392 23.161 256.131 L 23.161 243.869 25.204 243.869 L 27.248 243.869 27.248 256.131 " stroke="none" fill="#fbfbfb" fill-rule="evenodd"></path><path id="path2" d="M127.381 63.760 C 127.381 92.010,127.413 103.566,127.452 89.441 C 127.491 75.317,127.491 52.204,127.452 38.079 C 127.413 23.954,127.381 35.511,127.381 63.760 M268.733 27.163 C 268.995 27.232,269.424 27.232,269.687 27.163 C 269.949 27.095,269.734 27.039,269.210 27.039 C 268.685 27.039,268.471 27.095,268.733 27.163 M230.909 28.951 L 230.109 29.837 230.995 29.036 C 231.482 28.596,231.880 28.198,231.880 28.151 C 231.880 27.940,231.655 28.125,230.909 28.951 M157.484 36.444 L 155.995 38.011 157.561 36.522 C 158.423 35.702,159.128 34.997,159.128 34.955 C 159.128 34.753,158.868 34.989,157.484 36.444 M294.823 38.556 C 295.637 39.380,296.364 40.054,296.439 40.054 C 296.514 40.054,295.909 39.380,295.095 38.556 C 294.281 37.732,293.554 37.057,293.479 37.057 C 293.404 37.057,294.009 37.732,294.823 38.556 M159.401 38.556 C 158.739 39.230,158.258 39.782,158.333 39.782 C 158.408 39.782,159.011 39.230,159.673 38.556 C 160.335 37.881,160.815 37.330,160.740 37.330 C 160.665 37.330,160.062 37.881,159.401 38.556 M207.073 45.300 C 207.741 46.012,208.324 46.594,208.367 46.594 C 208.572 46.594,208.356 46.349,207.153 45.220 L 205.858 44.005 207.073 45.300 M116.140 62.125 C 116.140 62.650,116.196 62.864,116.264 62.602 C 116.333 62.340,116.333 61.911,116.264 61.649 C 116.196 61.386,116.140 61.601,116.140 62.125 M319.420 64.578 C 319.420 65.252,319.473 65.528,319.538 65.191 C 319.603 64.854,319.603 64.302,319.538 63.965 C 319.473 63.627,319.420 63.903,319.420 64.578 M145.316 65.804 C 145.318 66.703,145.368 67.038,145.429 66.548 C 145.490 66.059,145.488 65.323,145.426 64.913 C 145.364 64.504,145.315 64.905,145.316 65.804 M215.600 66.076 C 215.603 66.676,215.659 66.889,215.724 66.550 C 215.789 66.211,215.787 65.721,215.719 65.460 C 215.650 65.200,215.597 65.477,215.600 66.076 M308.783 67.302 C 308.783 67.827,308.839 68.042,308.907 67.779 C 308.976 67.517,308.976 67.088,308.907 66.826 C 308.839 66.563,308.783 66.778,308.783 67.302 M115.867 68.120 C 115.867 68.644,115.923 68.859,115.992 68.597 C 116.060 68.334,116.060 67.905,115.992 67.643 C 115.923 67.381,115.867 67.595,115.867 68.120 M115.595 74.114 C 115.595 74.639,115.651 74.854,115.719 74.591 C 115.788 74.329,115.788 73.900,115.719 73.638 C 115.651 73.375,115.595 73.590,115.595 74.114 M115.322 80.109 C 115.322 80.634,115.378 80.848,115.447 80.586 C 115.515 80.324,115.515 79.894,115.447 79.632 C 115.378 79.370,115.322 79.584,115.322 80.109 M166.076 86.104 C 166.662 86.703,167.202 87.193,167.277 87.193 C 167.352 87.193,166.934 86.703,166.349 86.104 C 165.763 85.504,165.223 85.014,165.148 85.014 C 165.073 85.014,165.491 85.504,166.076 86.104 M115.050 86.104 C 115.050 86.628,115.106 86.843,115.174 86.580 C 115.243 86.318,115.243 85.889,115.174 85.627 C 115.106 85.364,115.050 85.579,115.050 86.104 M114.777 92.098 C 114.777 92.623,114.833 92.837,114.902 92.575 C 114.970 92.313,114.970 91.884,114.902 91.621 C 114.833 91.359,114.777 91.574,114.777 92.098 M159.537 93.188 C 160.275 93.937,160.940 94.550,161.015 94.550 C 161.090 94.550,160.547 93.937,159.809 93.188 C 159.071 92.439,158.406 91.826,158.331 91.826 C 158.256 91.826,158.799 92.439,159.537 93.188 M294.676 93.256 L 293.324 94.687 294.755 93.334 C 295.542 92.591,296.185 91.947,296.185 91.904 C 296.185 91.701,295.933 91.927,294.676 93.256 M157.357 95.095 C 158.247 95.995,159.036 96.730,159.111 96.730 C 159.186 96.730,158.519 95.995,157.629 95.095 C 156.740 94.196,155.950 93.460,155.875 93.460 C 155.800 93.460,156.467 94.196,157.357 95.095 M186.311 94.743 C 186.650 94.808,187.140 94.806,187.401 94.738 C 187.662 94.669,187.384 94.616,186.785 94.619 C 186.185 94.622,185.972 94.678,186.311 94.743 M266.965 94.743 C 267.304 94.808,267.794 94.806,268.055 94.738 C 268.315 94.669,268.038 94.616,267.439 94.619 C 266.839 94.622,266.626 94.678,266.965 94.743 M327.378 104.087 L 327.384 112.943 329.019 112.943 L 330.654 112.943 330.729 108.738 C 330.780 105.945,330.917 104.390,331.138 104.106 C 331.432 103.729,331.415 103.723,330.995 104.052 C 330.577 104.380,330.518 104.950,330.518 108.616 L 330.518 112.807 329.023 112.807 L 327.528 112.807 327.450 104.019 L 327.373 95.232 327.378 104.087 M330.616 97.820 C 330.616 99.244,330.662 99.826,330.718 99.114 C 330.774 98.403,330.774 97.238,330.718 96.526 C 330.662 95.814,330.616 96.396,330.616 97.820 M299.854 98.433 L 298.501 99.864 299.932 98.512 C 300.719 97.768,301.362 97.124,301.362 97.081 C 301.362 96.878,301.110 97.104,299.854 98.433 M114.505 98.093 C 114.505 98.617,114.561 98.832,114.629 98.569 C 114.698 98.307,114.698 97.878,114.629 97.616 C 114.561 97.354,114.505 97.568,114.505 98.093 M223.288 102.520 L 221.662 104.223 223.365 102.597 C 224.302 101.703,225.068 100.936,225.068 100.894 C 225.068 100.693,224.799 100.938,223.288 102.520 M114.232 104.087 C 114.232 104.612,114.288 104.826,114.357 104.564 C 114.425 104.302,114.425 103.873,114.357 103.610 C 114.288 103.348,114.232 103.563,114.232 104.087 M315.905 105.995 C 315.905 107.568,315.950 108.212,316.005 107.425 C 316.060 106.638,316.060 105.351,316.005 104.564 C 315.950 103.777,315.905 104.421,315.905 105.995 M185.763 104.559 C 186.400 104.617,187.442 104.617,188.079 104.559 C 188.716 104.502,188.195 104.455,186.921 104.455 C 185.647 104.455,185.126 104.502,185.763 104.559 M266.697 104.560 C 267.337 104.617,268.318 104.616,268.876 104.558 C 269.434 104.499,268.910 104.452,267.711 104.453 C 266.512 104.454,266.056 104.502,266.697 104.560 M113.960 110.082 C 113.960 110.606,114.016 110.821,114.084 110.559 C 114.153 110.296,114.153 109.867,114.084 109.605 C 114.016 109.343,113.960 109.557,113.960 110.082 M335.627 113.004 C 336.114 113.064,336.911 113.064,337.398 113.004 C 337.885 112.943,337.486 112.894,336.512 112.894 C 335.538 112.894,335.140 112.943,335.627 113.004 M118.925 118.053 C 118.853 118.241,118.828 122.747,118.869 128.067 L 118.945 137.738 119.009 127.884 C 119.059 120.304,119.152 117.997,119.414 117.892 C 119.681 117.784,119.679 117.750,119.406 117.733 C 119.214 117.721,118.997 117.865,118.925 118.053 M238.550 136.853 L 238.556 145.095 240.191 145.115 L 241.826 145.134 240.263 145.034 L 238.700 144.933 238.622 136.772 L 238.544 128.610 238.550 136.853 M250.522 133.651 C 250.523 136.499,250.563 137.626,250.612 136.158 C 250.661 134.689,250.661 132.359,250.612 130.980 C 250.562 129.602,250.522 130.804,250.522 133.651 M321.883 130.381 C 321.884 131.281,321.935 131.616,321.996 131.126 C 322.056 130.636,322.055 129.900,321.993 129.491 C 321.931 129.082,321.881 129.482,321.883 130.381 M299.302 133.651 L 299.319 135.831 300.479 135.858 L 301.639 135.885 300.558 135.775 L 299.477 135.665 299.381 133.568 L 299.286 131.471 299.302 133.651 M291.904 136.649 C 291.906 137.398,291.959 137.672,292.021 137.258 C 292.084 136.844,292.082 136.231,292.017 135.895 C 291.953 135.560,291.902 135.899,291.904 136.649 M347.211 135.890 C 347.625 135.953,348.238 135.951,348.573 135.887 C 348.908 135.822,348.569 135.771,347.820 135.773 C 347.071 135.775,346.797 135.828,347.211 135.890 M299.240 141.745 L 299.183 144.934 297.343 145.030 L 295.504 145.125 297.352 145.178 C 299.583 145.243,299.500 145.391,299.386 141.536 L 299.298 138.556 299.240 141.745 M362.246 142.098 L 362.262 145.095 364.033 145.114 L 365.804 145.133 364.110 145.034 L 362.416 144.935 362.324 142.018 L 362.231 139.101 362.246 142.098 M139.984 140.505 L 140.594 140.637 140.669 152.948 L 140.744 165.259 140.740 152.861 L 140.736 140.463 140.054 140.419 C 139.460 140.380,139.451 140.391,139.984 140.505 M206.131 141.323 C 208.743 141.523,211.656 141.537,211.539 141.349 C 211.469 141.236,209.978 141.166,208.226 141.192 C 206.474 141.218,205.531 141.277,206.131 141.323 M330.733 141.346 C 331.675 141.400,333.147 141.399,334.003 141.345 C 334.858 141.292,334.087 141.248,332.289 141.248 C 330.490 141.249,329.790 141.293,330.733 141.346 M289.373 142.161 L 292.643 142.251 292.643 143.599 L 292.643 144.947 287.602 145.031 L 282.561 145.114 287.670 145.105 L 292.779 145.095 292.779 143.597 L 292.779 142.098 289.441 142.085 L 286.103 142.072 289.373 142.161 M199.971 145.041 C 200.092 145.160,201.036 145.220,202.071 145.174 L 203.951 145.090 201.852 144.956 C 200.697 144.883,199.851 144.921,199.971 145.041 M212.777 145.040 C 212.897 145.159,213.903 145.220,215.013 145.174 L 217.030 145.090 214.794 144.957 C 213.565 144.883,212.657 144.921,212.777 145.040 M269.998 145.040 C 270.118 145.159,271.124 145.220,272.233 145.174 L 274.251 145.090 272.015 144.957 C 270.785 144.883,269.878 144.921,269.998 145.040 M219.817 145.156 C 220.301 145.216,221.159 145.217,221.724 145.158 C 222.289 145.099,221.894 145.050,220.845 145.049 C 219.796 145.047,219.333 145.096,219.817 145.156 M231.676 145.158 C 232.238 145.216,233.157 145.216,233.719 145.158 C 234.281 145.099,233.822 145.051,232.698 145.051 C 231.574 145.051,231.114 145.099,231.676 145.158 M251.152 145.156 C 251.636 145.216,252.494 145.217,253.059 145.158 C 253.625 145.099,253.229 145.050,252.180 145.049 C 251.131 145.047,250.668 145.096,251.152 145.156 M306.751 145.159 C 307.392 145.217,308.373 145.216,308.931 145.157 C 309.489 145.099,308.965 145.052,307.766 145.053 C 306.567 145.054,306.110 145.101,306.751 145.159 M324.735 145.159 C 325.376 145.217,326.357 145.216,326.915 145.157 C 327.473 145.099,326.948 145.052,325.749 145.053 C 324.550 145.054,324.094 145.101,324.735 145.159 M337.670 145.158 C 338.232 145.216,339.152 145.216,339.714 145.158 C 340.276 145.099,339.816 145.051,338.692 145.051 C 337.568 145.051,337.108 145.099,337.670 145.158 M343.795 145.156 C 344.279 145.216,345.137 145.217,345.702 145.158 C 346.268 145.099,345.872 145.050,344.823 145.049 C 343.774 145.047,343.311 145.096,343.795 145.156 M354.163 145.159 C 354.803 145.217,355.784 145.216,356.342 145.157 C 356.900 145.099,356.376 145.052,355.177 145.053 C 353.978 145.054,353.522 145.101,354.163 145.159 M315.191 145.424 C 315.528 145.489,316.080 145.489,316.417 145.424 C 316.754 145.359,316.478 145.306,315.804 145.306 C 315.129 145.306,314.854 145.359,315.191 145.424 M101.483 155.313 C 101.483 159.884,101.521 161.754,101.566 159.469 C 101.612 157.183,101.612 153.443,101.566 151.158 C 101.521 148.873,101.483 150.743,101.483 155.313 M98.836 153.057 C 99.434 153.167,99.444 153.245,99.526 158.124 L 99.609 163.079 99.600 158.038 L 99.591 152.997 98.910 152.971 C 98.330 152.949,98.319 152.961,98.836 153.057 M75.882 223.297 C 75.882 248.025,75.914 258.100,75.954 245.687 C 75.993 233.274,75.993 213.042,75.954 200.728 C 75.914 188.413,75.882 198.569,75.882 223.297 M83.310 178.925 L 83.922 179.057 83.992 223.793 L 84.062 268.529 84.061 223.706 L 84.060 178.883 83.379 178.838 C 82.780 178.799,82.772 178.810,83.310 178.925 M138.618 181.941 C 139.102 182.001,139.960 182.002,140.525 181.943 C 141.091 181.884,140.695 181.834,139.646 181.833 C 138.597 181.832,138.134 181.880,138.618 181.941 M73.975 226.294 C 73.975 249.373,74.007 258.774,74.046 247.186 C 74.086 235.597,74.086 216.714,74.046 205.224 C 74.007 193.734,73.975 203.215,73.975 226.294 M265.528 226.703 C 265.528 249.707,265.560 259.118,265.599 247.616 C 265.639 236.114,265.639 217.292,265.599 205.790 C 265.560 194.288,265.528 203.699,265.528 226.703 M111.032 230.654 C 111.032 251.485,111.064 259.967,111.104 249.502 C 111.143 239.037,111.143 221.994,111.104 211.627 C 111.064 201.261,111.032 209.823,111.032 230.654 M206.120 195.163 C 206.049 195.351,206.023 211.935,206.062 232.016 L 206.133 268.529 206.200 231.832 C 206.263 197.144,206.293 195.129,206.744 195.011 C 207.191 194.894,207.190 194.884,206.735 194.854 C 206.468 194.837,206.192 194.976,206.120 195.163 M184.569 199.183 C 184.569 200.756,184.615 201.400,184.670 200.613 C 184.725 199.826,184.725 198.539,184.670 197.752 C 184.615 196.965,184.569 197.609,184.569 199.183 M187.870 234.060 C 187.870 252.868,187.903 260.562,187.943 251.158 C 187.982 241.754,187.982 226.366,187.943 216.962 C 187.903 207.558,187.870 215.252,187.870 234.060 M167.707 234.741 C 167.707 253.324,167.740 260.886,167.779 251.546 C 167.819 242.205,167.819 227.001,167.779 217.758 C 167.739 208.516,167.707 216.158,167.707 234.741 M182.084 201.823 C 182.347 201.891,182.776 201.891,183.038 201.823 C 183.300 201.754,183.086 201.698,182.561 201.698 C 182.037 201.698,181.822 201.754,182.084 201.823 M183.991 205.076 C 184.439 205.209,184.470 207.010,184.537 236.600 L 184.608 267.984 184.607 236.516 C 184.605 205.249,184.601 205.048,184.060 204.992 C 183.639 204.949,183.623 204.968,183.991 205.076 M42.575 238.880 C 42.837 238.948,43.266 238.948,43.529 238.880 C 43.791 238.811,43.576 238.755,43.052 238.755 C 42.527 238.755,42.313 238.811,42.575 238.880 M35.630 240.792 C 35.969 240.857,36.459 240.855,36.720 240.787 C 36.980 240.718,36.703 240.665,36.104 240.668 C 35.504 240.671,35.291 240.727,35.630 240.792 " stroke="none" fill="#d4a4a7" fill-rule="evenodd"></path><path id="path3" d="M93.313 30.790 C 93.313 37.159,93.348 39.765,93.392 36.580 C 93.436 33.396,93.436 28.185,93.392 25.000 C 93.348 21.815,93.313 24.421,93.313 30.790 M186.448 27.171 C 186.862 27.234,187.475 27.232,187.810 27.167 C 188.145 27.103,187.807 27.051,187.057 27.053 C 186.308 27.055,186.034 27.108,186.448 27.171 M266.965 27.168 C 267.304 27.233,267.794 27.231,268.055 27.163 C 268.315 27.094,268.038 27.041,267.439 27.044 C 266.839 27.047,266.626 27.103,266.965 27.168 M287.875 45.232 C 288.460 45.831,289.000 46.322,289.075 46.322 C 289.150 46.322,288.732 45.831,288.147 45.232 C 287.562 44.632,287.022 44.142,286.947 44.142 C 286.872 44.142,287.289 44.632,287.875 45.232 M319.415 66.621 C 319.418 67.221,319.474 67.434,319.539 67.095 C 319.604 66.756,319.601 66.266,319.533 66.005 C 319.465 65.744,319.412 66.022,319.415 66.621 M135.818 128.610 C 135.818 134.080,135.854 136.318,135.899 133.583 C 135.943 130.848,135.943 126.373,135.899 123.638 C 135.854 120.903,135.818 123.140,135.818 128.610 M342.900 136.785 C 342.900 141.356,342.938 143.225,342.983 140.940 C 343.029 138.655,343.029 134.915,342.983 132.629 C 342.938 130.344,342.900 132.214,342.900 136.785 M95.474 167.166 C 95.474 169.114,95.518 169.876,95.570 168.858 C 95.623 167.840,95.622 166.246,95.569 165.316 C 95.516 164.385,95.473 165.218,95.474 167.166 M292.496 172.003 C 292.425 172.190,292.398 193.924,292.437 220.300 L 292.507 268.256 292.643 219.959 C 292.718 193.396,292.745 171.662,292.703 171.662 C 292.660 171.662,292.568 171.815,292.496 172.003 M95.501 220.436 C 95.501 246.737,95.533 257.497,95.572 244.346 C 95.611 231.196,95.611 209.676,95.572 196.526 C 95.533 183.375,95.501 194.135,95.501 220.436 M67.163 226.158 C 67.163 249.312,67.195 258.784,67.234 247.207 C 67.274 235.630,67.274 216.686,67.234 205.109 C 67.195 193.532,67.163 203.004,67.163 226.158 M136.645 229.428 C 136.645 250.783,136.677 259.520,136.717 248.842 C 136.756 238.164,136.756 220.691,136.717 210.014 C 136.677 199.336,136.645 208.072,136.645 229.428 " stroke="none" fill="#cc8c8c" fill-rule="evenodd"></path><path id="path4" d="M185.354 24.166 C 185.616 24.235,186.046 24.235,186.308 24.166 C 186.570 24.097,186.356 24.041,185.831 24.041 C 185.307 24.041,185.092 24.097,185.354 24.166 M187.673 24.171 C 188.012 24.236,188.503 24.234,188.763 24.165 C 189.024 24.097,188.747 24.044,188.147 24.047 C 187.548 24.050,187.335 24.106,187.673 24.171 M223.297 29.155 C 224.187 30.054,224.976 30.790,225.051 30.790 C 225.126 30.790,224.459 30.054,223.569 29.155 C 222.680 28.256,221.890 27.520,221.815 27.520 C 221.740 27.520,222.407 28.256,223.297 29.155 M300.545 31.965 C 300.545 32.012,300.943 32.411,301.431 32.851 L 302.316 33.651 301.516 32.766 C 300.770 31.940,300.545 31.755,300.545 31.965 M216.213 36.240 C 216.798 36.839,217.338 37.330,217.413 37.330 C 217.488 37.330,217.070 36.839,216.485 36.240 C 215.900 35.640,215.359 35.150,215.284 35.150 C 215.210 35.150,215.627 35.640,216.213 36.240 M238.132 36.172 L 237.193 37.193 238.215 36.254 C 239.166 35.380,239.362 35.150,239.154 35.150 C 239.109 35.150,238.649 35.610,238.132 36.172 M108.447 42.717 C 108.447 42.833,109.520 43.967,110.831 45.238 L 113.215 47.548 110.915 45.173 L 108.615 42.799 111.596 42.711 L 114.578 42.623 111.512 42.565 C 109.826 42.533,108.447 42.601,108.447 42.717 M120.379 42.709 C 121.321 42.762,122.792 42.762,123.648 42.708 C 124.504 42.654,123.733 42.610,121.935 42.611 C 120.136 42.611,119.436 42.655,120.379 42.709 M121.526 46.185 C 120.864 46.860,120.384 47.411,120.459 47.411 C 120.534 47.411,121.137 46.860,121.798 46.185 C 122.460 45.511,122.940 44.959,122.866 44.959 C 122.791 44.959,122.188 45.511,121.526 46.185 M306.086 65.668 C 306.086 66.792,306.134 67.251,306.193 66.689 C 306.252 66.127,306.252 65.208,306.193 64.646 C 306.134 64.084,306.086 64.544,306.086 65.668 M148.320 65.940 C 148.320 67.064,148.369 67.524,148.427 66.962 C 148.486 66.400,148.486 65.480,148.427 64.918 C 148.369 64.356,148.320 64.816,148.320 65.940 M296.547 65.804 C 296.548 66.853,296.598 67.249,296.657 66.683 C 296.716 66.118,296.715 65.260,296.654 64.776 C 296.594 64.292,296.546 64.755,296.547 65.804 M238.494 67.030 C 238.494 67.704,238.547 67.980,238.612 67.643 C 238.677 67.306,238.677 66.754,238.612 66.417 C 238.547 66.080,238.494 66.356,238.494 67.030 M207.084 86.240 C 206.423 86.914,205.942 87.466,206.017 87.466 C 206.092 87.466,206.695 86.914,207.357 86.240 C 208.019 85.565,208.499 85.014,208.424 85.014 C 208.349 85.014,207.746 85.565,207.084 86.240 M214.160 93.120 L 212.670 94.687 214.237 93.197 C 215.099 92.378,215.804 91.673,215.804 91.631 C 215.804 91.428,215.543 91.664,214.160 93.120 M304.087 93.869 C 304.596 94.394,305.073 94.823,305.148 94.823 C 305.223 94.823,304.868 94.394,304.360 93.869 C 303.851 93.345,303.374 92.916,303.299 92.916 C 303.224 92.916,303.579 93.345,304.087 93.869 M296.722 95.027 L 294.959 96.866 296.798 95.103 C 297.810 94.133,298.638 93.306,298.638 93.264 C 298.638 93.063,298.360 93.319,296.722 95.027 M317.766 97.466 L 319.047 97.576 319.129 99.129 L 319.210 100.681 320.640 100.764 L 322.071 100.846 322.071 101.907 L 322.071 102.969 320.640 103.051 L 319.210 103.134 319.196 106.131 L 319.183 109.128 319.273 106.213 L 319.364 103.298 320.785 103.216 L 322.207 103.134 322.207 101.907 L 322.207 100.681 320.790 100.599 L 319.372 100.517 319.291 98.964 L 319.210 97.411 317.847 97.384 L 316.485 97.356 317.766 97.466 M303.951 99.455 C 304.536 100.054,305.077 100.545,305.151 100.545 C 305.226 100.545,304.809 100.054,304.223 99.455 C 303.638 98.856,303.098 98.365,303.023 98.365 C 302.948 98.365,303.366 98.856,303.951 99.455 M314.278 101.973 C 314.304 103.069,314.351 103.135,315.123 103.159 C 315.863 103.182,315.871 103.174,315.206 103.075 C 314.574 102.980,314.456 102.814,314.361 101.889 L 314.252 100.813 314.278 101.973 M149.852 102.248 C 150.982 103.451,151.226 103.667,151.226 103.463 C 151.226 103.419,150.644 102.837,149.932 102.168 L 148.638 100.954 149.852 102.248 M186.029 107.554 C 186.513 107.614,187.371 107.615,187.937 107.556 C 188.502 107.497,188.106 107.448,187.057 107.446 C 186.008 107.445,185.546 107.493,186.029 107.554 M265.603 111.909 C 265.942 111.975,266.432 111.972,266.693 111.904 C 266.953 111.836,266.676 111.782,266.076 111.785 C 265.477 111.788,265.264 111.844,265.603 111.909 M185.770 117.639 C 186.411 117.696,187.392 117.695,187.950 117.637 C 188.508 117.578,187.984 117.531,186.785 117.532 C 185.586 117.533,185.129 117.581,185.770 117.639 M117.005 132.834 C 117.005 135.381,117.046 136.460,117.096 135.231 C 117.147 134.002,117.147 131.918,117.097 130.599 C 117.047 129.281,117.006 130.286,117.005 132.834 M254.072 136.649 C 254.072 141.294,254.109 143.233,254.155 140.957 C 254.200 138.681,254.200 134.880,254.155 132.510 C 254.109 130.140,254.072 132.003,254.072 136.649 M282.410 136.785 C 282.410 141.356,282.447 143.225,282.493 140.940 C 282.538 138.655,282.538 134.915,282.493 132.629 C 282.447 130.344,282.410 132.214,282.410 136.785 M242.078 139.237 C 242.078 142.459,242.117 143.777,242.165 142.166 C 242.213 140.555,242.213 137.919,242.165 136.308 C 242.117 134.697,242.078 136.015,242.078 139.237 M346.935 138.607 C 347.197 138.676,347.626 138.676,347.888 138.607 C 348.151 138.539,347.936 138.483,347.411 138.483 C 346.887 138.483,346.672 138.539,346.935 138.607 M113.750 151.635 C 113.750 158.529,113.785 161.310,113.828 157.815 C 113.871 154.320,113.871 148.680,113.828 145.281 C 113.785 141.882,113.750 144.741,113.750 151.635 M373.364 222.002 L 373.297 268.118 332.902 268.188 L 292.507 268.258 332.910 268.325 C 365.032 268.379,373.341 268.323,373.444 268.052 C 373.515 267.864,373.541 247.050,373.502 221.798 L 373.432 175.886 373.364 222.002 M136.616 184.877 C 136.617 186.676,136.661 187.376,136.714 186.433 C 136.768 185.491,136.767 184.020,136.713 183.164 C 136.659 182.308,136.616 183.079,136.616 184.877 M142.984 181.941 C 143.471 182.001,144.268 182.001,144.755 181.941 C 145.242 181.881,144.843 181.831,143.869 181.831 C 142.895 181.831,142.497 181.881,142.984 181.941 M139.372 226.431 L 139.373 268.256 145.504 268.264 L 151.635 268.272 145.573 268.191 L 139.511 268.109 139.441 226.357 L 139.371 184.605 139.372 226.431 M225.739 189.986 C 225.668 190.174,225.641 207.861,225.679 229.292 L 225.749 268.256 234.469 268.256 L 243.188 268.256 243.189 229.564 L 243.191 190.872 243.120 229.496 L 243.050 268.120 234.468 268.120 L 225.886 268.120 225.886 229.038 L 225.886 189.956 226.499 189.838 L 227.112 189.720 226.490 189.683 C 226.148 189.662,225.810 189.799,225.739 189.986 M113.759 231.744 L 113.760 268.256 118.461 268.266 L 123.161 268.276 118.530 268.192 L 113.898 268.107 113.828 231.669 L 113.757 195.232 113.759 231.744 M65.189 242.839 L 65.123 268.103 61.785 268.189 L 58.447 268.275 61.793 268.333 C 64.264 268.377,65.174 268.303,65.270 268.052 C 65.341 267.864,65.367 256.431,65.328 242.643 L 65.256 217.575 65.189 242.839 M56.199 237.229 C 56.646 237.361,56.676 238.337,56.676 252.736 L 56.676 268.103 53.474 268.192 L 50.272 268.281 53.542 268.269 L 56.812 268.256 56.812 252.729 C 56.812 237.401,56.805 237.200,56.267 237.145 C 55.844 237.101,55.828 237.120,56.199 237.229 M42.367 253.542 L 42.371 268.256 45.368 268.256 L 48.365 268.256 48.369 253.678 L 48.372 239.101 48.298 253.610 L 48.224 268.120 45.368 268.120 L 42.512 268.120 42.437 253.474 L 42.363 238.828 42.367 253.542 M35.282 254.564 L 35.286 268.256 37.943 268.272 L 40.601 268.287 38.014 268.194 L 35.427 268.100 35.353 254.486 L 35.278 240.872 35.282 254.564 M25.954 244.058 L 26.975 244.175 26.975 256.135 L 26.975 268.096 25.136 268.194 L 23.297 268.292 25.204 268.274 L 27.112 268.256 27.112 256.131 L 27.112 244.005 26.022 243.973 L 24.932 243.940 25.954 244.058 M30.049 268.321 C 30.765 268.377,31.869 268.376,32.501 268.319 C 33.134 268.262,32.548 268.216,31.199 268.217 C 29.850 268.217,29.333 268.264,30.049 268.321 M68.869 268.322 C 69.806 268.375,71.339 268.375,72.275 268.322 C 73.212 268.268,72.446 268.225,70.572 268.225 C 68.699 268.225,67.933 268.268,68.869 268.322 M78.010 268.323 C 79.178 268.374,81.017 268.374,82.097 268.322 C 83.177 268.270,82.221 268.228,79.973 268.229 C 77.725 268.229,76.841 268.271,78.010 268.323 M88.351 268.323 C 89.663 268.373,91.809 268.373,93.120 268.323 C 94.431 268.273,93.358 268.232,90.736 268.232 C 88.113 268.232,87.040 268.273,88.351 268.323 M100.901 268.324 C 102.821 268.371,105.886 268.370,107.713 268.323 C 109.541 268.276,107.970 268.238,104.223 268.238 C 100.477 268.238,98.982 268.277,100.901 268.324 M128.557 268.323 C 130.101 268.372,132.553 268.372,134.006 268.323 C 135.460 268.274,134.196 268.234,131.199 268.234 C 128.202 268.235,127.013 268.275,128.557 268.323 M157.577 268.324 C 159.497 268.371,162.562 268.370,164.389 268.323 C 166.216 268.276,164.646 268.238,160.899 268.238 C 157.153 268.238,155.658 268.277,157.577 268.324 M174.471 268.324 C 176.390 268.371,179.456 268.370,181.283 268.323 C 183.110 268.276,181.540 268.238,177.793 268.238 C 174.046 268.238,172.551 268.277,174.471 268.324 M191.621 268.324 C 193.682 268.370,197.054 268.370,199.114 268.324 C 201.175 268.277,199.489 268.239,195.368 268.239 C 191.247 268.239,189.561 268.277,191.621 268.324 M210.303 268.324 C 212.598 268.369,216.276 268.369,218.477 268.324 C 220.679 268.278,218.801 268.240,214.305 268.241 C 209.809 268.241,208.008 268.278,210.303 268.324 M251.431 268.324 C 254.016 268.369,258.246 268.369,260.831 268.324 C 263.416 268.279,261.301 268.242,256.131 268.242 C 250.960 268.242,248.845 268.279,251.431 268.324 M273.910 268.324 C 276.720 268.368,281.318 268.368,284.128 268.324 C 286.938 268.280,284.639 268.243,279.019 268.243 C 273.399 268.243,271.100 268.280,273.910 268.324 " stroke="none" fill="#c4848c" fill-rule="evenodd"></path></g></svg>